<svg width="320" height="325" viewBox="0 0 320 325" fill="none" xmlns="http://www.w3.org/2000/svg">
<path d="M319.915 174.918C319.915 257.761 252.758 324.918 169.915 324.918C87.0725 324.918 19.9153 257.761 19.9153 174.918C19.9153 92.0753 87.0725 24.918 169.915 24.918C252.758 24.918 319.915 92.0753 319.915 174.918Z" fill="url(#paint0_linear_38_38)"/>
<path d="M305 150C305 232.843 237.843 300 155 300C72.1573 300 5 232.843 5 150C5 67.1573 72.1573 0 155 0C237.843 0 305 67.1573 305 150Z" fill="black"/>
<path d="M305.085 150C305.085 232.843 236.789 300 152.542 300C68.2955 300 0 232.843 0 150C0 67.1573 68.2955 0 152.542 0C236.789 0 305.085 67.1573 305.085 150Z" fill="url(#paint1_linear_38_38)"/>
<defs>
<linearGradient id="paint0_linear_38_38" x1="159.958" y1="0" x2="159.958" y2="324.918" gradientUnits="userSpaceOnUse">
<stop offset="0.203125" stop-color="#555FDA"/>
<stop offset="1" stop-color="#555FDA" stop-opacity="0.23"/>
</linearGradient>
<linearGradient id="paint1_linear_38_38" x1="152.542" y1="0" x2="152.542" y2="300" gradientUnits="userSpaceOnUse">
<stop offset="0.208333" stop-color="white"/>
<stop offset="0.927083" stop-color="#555FDA"/>
</linearGradient>
</defs>
</svg>
