<svg width="61" height="72" viewBox="0 0 61 72" fill="none" xmlns="http://www.w3.org/2000/svg">
<path d="M20.1399 1.4956C19.6191 -0.499834 16.6684 -0.499834 16.1456 1.4956L15.9934 2.08394C15.9044 2.42585 15.7217 2.73866 15.4643 2.98992C15.2068 3.24118 14.884 3.42172 14.5294 3.51281C14.1748 3.60391 13.8012 3.60224 13.4475 3.50797C13.0937 3.41371 12.7727 3.23029 12.5177 2.97674L12.0784 2.54268C10.5891 1.0636 8.03271 2.48097 8.622 4.45788L8.79343 5.04211C8.89416 5.3806 8.89881 5.7388 8.80689 6.07959C8.71498 6.42039 8.52984 6.73141 8.27065 6.98044C8.01146 7.22947 7.68764 7.40747 7.33272 7.49599C6.9778 7.58452 6.60468 7.58036 6.252 7.48394L5.64342 7.31731C3.58628 6.7516 2.10771 9.20577 3.64842 10.6355L4.10057 11.0572C4.36468 11.302 4.55574 11.6102 4.65394 11.9498C4.75213 12.2893 4.75387 12.648 4.65898 12.9884C4.56409 13.3289 4.37602 13.6388 4.1143 13.8859C3.85257 14.133 3.52672 14.3084 3.17057 14.3939L2.55771 14.5399C0.479136 15.0398 0.479136 17.8725 2.55771 18.3745L3.17057 18.5205C3.52672 18.606 3.85257 18.7814 4.1143 19.0285C4.37602 19.2756 4.56409 19.5855 4.65898 19.926C4.75387 20.2664 4.75213 20.6251 4.65394 20.9646C4.55574 21.3042 4.36468 21.6124 4.10057 21.8572L3.64842 22.2789C2.10771 23.7086 3.58414 26.1628 5.64342 25.5971L6.252 25.4325C6.60481 25.3356 6.97821 25.3311 7.33346 25.4194C7.68871 25.5077 8.01288 25.6857 8.27237 25.9348C8.53186 26.1839 8.71721 26.4951 8.8092 26.8361C8.9012 27.1772 8.89649 27.5356 8.79557 27.8743L8.622 28.4565C8.03271 30.4314 10.5891 31.8508 12.0784 30.3717L12.5177 29.9377C12.7727 29.6841 13.0937 29.5007 13.4475 29.4064C13.8012 29.3122 14.1748 29.3105 14.5294 29.4016C14.884 29.4927 15.2068 29.6732 15.4643 29.9245C15.7217 30.1757 15.9044 30.4885 15.9934 30.8305L16.1456 31.4188C16.6663 33.4142 19.617 33.4142 20.1399 31.4188L20.292 30.8305C20.381 30.4885 20.5637 30.1757 20.8212 29.9245C21.0786 29.6732 21.4014 29.4927 21.756 29.4016C22.1107 29.3105 22.4842 29.3122 22.838 29.4064C23.1917 29.5007 23.5127 29.6841 23.7677 29.9377L24.207 30.3717C25.6963 31.8508 28.2527 30.4334 27.6634 28.4565L27.492 27.8723C27.3911 27.5336 27.3864 27.1751 27.4784 26.8341C27.5704 26.493 27.7557 26.1818 28.0152 25.9327C28.2747 25.6836 28.5989 25.5057 28.9541 25.4174C29.3094 25.3291 29.6828 25.3336 30.0356 25.4305L30.642 25.5971C32.6991 26.1628 34.1777 23.7086 32.637 22.2789L32.1849 21.8572C31.9208 21.6124 31.7297 21.3042 31.6315 20.9646C31.5333 20.6251 31.5316 20.2664 31.6265 19.926C31.7213 19.5855 31.9094 19.2756 32.1711 19.0285C32.4329 18.7814 32.7587 18.606 33.1149 18.5205L33.7277 18.3745C35.8063 17.8746 35.8063 15.0419 33.7277 14.5399L33.1149 14.3939C32.7587 14.3084 32.4329 14.133 32.1711 13.8859C31.9094 13.6388 31.7213 13.3289 31.6265 12.9884C31.5316 12.648 31.5333 12.2893 31.6315 11.9498C31.7297 11.6102 31.9208 11.302 32.1849 11.0572L32.637 10.6355C34.1777 9.20577 32.7013 6.7516 30.642 7.31731L30.0334 7.48188C29.6808 7.57859 29.3077 7.58305 28.9527 7.49481C28.5977 7.40657 28.2737 7.22884 28.0143 6.98002C27.7549 6.7312 27.5695 6.42033 27.4773 6.0796C27.3851 5.73888 27.3894 5.38069 27.4899 5.04211L27.6634 4.45788C28.2527 2.48302 25.6963 1.0636 24.207 2.54268L23.7677 2.97674C23.5127 3.23029 23.1917 3.41371 22.838 3.50797C22.4842 3.60224 22.1107 3.60391 21.756 3.51281C21.4014 3.42172 21.0786 3.24118 20.8212 2.98992C20.5637 2.73866 20.381 2.42585 20.292 2.08394L20.1399 1.4956ZM18.1427 26.7367C16.7236 26.756 15.3147 26.5043 13.9979 25.9963C12.681 25.4883 11.4825 24.7341 10.4719 23.7776C9.46126 22.821 8.65877 21.6812 8.11103 20.4243C7.56329 19.1675 7.28122 17.8186 7.28122 16.4562C7.28122 15.0937 7.56329 13.7449 8.11103 12.488C8.65877 11.2311 9.46126 10.0913 10.4719 9.13474C11.4825 8.17819 12.681 7.424 13.9979 6.916C15.3147 6.408 16.7236 6.15633 18.1427 6.1756C20.9832 6.1756 23.7073 7.25883 25.7158 9.18701C27.7243 11.1152 28.8527 13.7303 28.8527 16.4572C28.8527 19.184 27.7243 21.7992 25.7158 23.7274C23.7073 25.6556 20.9832 26.7388 18.1427 26.7388V26.7367Z" fill="#F8FAFC"/>
<path d="M45.8541 20.0099C45.3334 18.0145 42.3827 18.0145 41.8599 20.0099L41.7077 20.5982C41.6187 20.9401 41.436 21.2529 41.1786 21.5042C40.9211 21.7555 40.5983 21.936 40.2437 22.0271C39.8891 22.1182 39.5155 22.1165 39.1617 22.0223C38.808 21.928 38.487 21.7446 38.232 21.491L37.7927 21.057C36.3034 19.5779 33.747 20.9953 34.3363 22.9722L34.5077 23.5564C34.6084 23.8949 34.6131 24.2531 34.5212 24.5939C34.4293 24.9347 34.2441 25.2457 33.9849 25.4947C33.7257 25.7438 33.4019 25.9218 33.047 26.0103C32.6921 26.0988 32.319 26.0946 31.9663 25.9982L31.3577 25.8316C29.3006 25.2659 27.822 27.7201 29.3627 29.1498L29.8149 29.5715C30.079 29.8163 30.27 30.1244 30.3682 30.464C30.4664 30.8036 30.4682 31.1623 30.3733 31.5027C30.2784 31.8432 30.0903 32.153 29.8286 32.4002C29.5669 32.6473 29.241 32.8227 28.8849 32.9082L28.272 33.0542C26.1934 33.5541 26.1934 36.3868 28.272 36.8887L28.8849 37.0348C29.241 37.1203 29.5669 37.2957 29.8286 37.5428C30.0903 37.7899 30.2784 38.0998 30.3733 38.4403C30.4682 38.7807 30.4664 39.1393 30.3682 39.4789C30.27 39.8185 30.079 40.1267 29.8149 40.3715L29.3627 40.7932C27.822 42.2229 29.2984 44.6771 31.3577 44.1114L31.9663 43.9468C32.3191 43.8499 32.6925 43.8454 33.0477 43.9337C33.403 44.022 33.7272 44.2 33.9867 44.4491C34.2461 44.6982 34.4315 45.0094 34.5235 45.3504C34.6155 45.6915 34.6108 46.0499 34.5099 46.3886L34.3363 46.9708C33.747 48.9457 36.3034 50.3651 37.7927 48.886L38.232 48.452C38.487 48.1984 38.808 48.015 39.1617 47.9207C39.5155 47.8265 39.8891 47.8248 40.2437 47.9159C40.5983 48.007 40.9211 48.1875 41.1786 48.4388C41.436 48.69 41.6187 49.0028 41.7077 49.3448L41.8599 49.9331C42.3806 51.9285 45.3313 51.9285 45.8541 49.9331L46.0063 49.3448C46.0953 49.0028 46.278 48.69 46.5354 48.4388C46.7929 48.1875 47.1157 48.007 47.4703 47.9159C47.8249 47.8248 48.1985 47.8265 48.5523 47.9207C48.906 48.015 49.227 48.1984 49.482 48.452L49.9213 48.886C51.4106 50.3651 53.967 48.9477 53.3777 46.9708L53.2063 46.3866C53.1054 46.0479 53.1007 45.6894 53.1927 45.3484C53.2846 45.0073 53.47 44.6961 53.7295 44.447C53.989 44.1979 54.3131 44.02 54.6684 43.9317C55.0236 43.8433 55.397 43.8479 55.7499 43.9447L56.3563 44.1114C58.4134 44.6771 59.892 42.2229 58.3513 40.7932L57.8991 40.3715C57.635 40.1267 57.444 39.8185 57.3458 39.4789C57.2476 39.1393 57.2458 38.7807 57.3407 38.4403C57.4356 38.0998 57.6237 37.7899 57.8854 37.5428C58.1471 37.2957 58.473 37.1203 58.8291 37.0348L59.442 36.8887C61.5206 36.3889 61.5206 33.5562 59.442 33.0542L58.8291 32.9082C58.473 32.8227 58.1471 32.6473 57.8854 32.4002C57.6237 32.153 57.4356 31.8432 57.3407 31.5027C57.2458 31.1623 57.2476 30.8036 57.3458 30.464C57.444 30.1244 57.635 29.8163 57.8991 29.5715L58.3513 29.1498C59.892 27.7201 58.4156 25.2659 56.3563 25.8316L55.7477 25.9962C55.3951 26.0929 55.022 26.0973 54.667 26.0091C54.312 25.9209 53.988 25.7431 53.7286 25.4943C53.4692 25.2455 53.2838 24.9346 53.1916 24.5939C53.0994 24.2532 53.1037 23.895 53.2041 23.5564L53.3777 22.9722C53.967 20.9973 51.4106 19.5779 49.9213 21.057L49.482 21.491C49.227 21.7446 48.906 21.928 48.5523 22.0223C48.1985 22.1165 47.8249 22.1182 47.4703 22.0271C47.1157 21.936 46.7929 21.7555 46.5354 21.5042C46.278 21.2529 46.0953 20.9401 46.0063 20.5982L45.8541 20.0099ZM43.857 45.251C42.4379 45.2703 41.029 45.0186 39.7122 44.5106C38.3953 44.0026 37.1967 43.2484 36.1861 42.2919C35.1755 41.3353 34.3731 40.1955 33.8253 38.9386C33.2776 37.6817 32.9955 36.3329 32.9955 34.9705C32.9955 33.608 33.2776 32.2592 33.8253 31.0023C34.3731 29.7454 35.1755 28.6056 36.1861 27.649C37.1967 26.6925 38.3953 25.9383 39.7122 25.4303C41.029 24.9223 42.4379 24.6706 43.857 24.6899C46.6975 24.6899 49.4216 25.7731 51.4301 27.7013C53.4386 29.6295 54.567 32.2446 54.567 34.9715C54.567 37.6983 53.4386 40.3135 51.4301 42.2417C49.4216 44.1699 46.6975 45.2531 43.857 45.2531V45.251Z" fill="#F8FAFC"/>
<path d="M20.1399 40.5813C19.6191 38.5859 16.6684 38.5859 16.1456 40.5813L15.9934 41.1697C15.9044 41.5116 15.7217 41.8244 15.4643 42.0756C15.2068 42.3269 14.884 42.5074 14.5294 42.5985C14.1748 42.6896 13.8012 42.688 13.4475 42.5937C13.0937 42.4994 12.7727 42.316 12.5177 42.0625L12.0784 41.6284C10.5891 40.1493 8.03271 41.5667 8.622 43.5436L8.79343 44.1278C8.89416 44.4663 8.89881 44.8245 8.80689 45.1653C8.71498 45.5061 8.52984 45.8171 8.27065 46.0662C8.01146 46.3152 7.68764 46.4932 7.33272 46.5817C6.9778 46.6702 6.60468 46.6661 6.252 46.5697L5.64342 46.403C3.58628 45.8373 2.10771 48.2915 3.64842 49.7212L4.10057 50.1429C4.36468 50.3877 4.55574 50.6959 4.65394 51.0355C4.75213 51.3751 4.75387 51.7337 4.65898 52.0741C4.56409 52.4146 4.37602 52.7245 4.1143 52.9716C3.85257 53.2187 3.52672 53.3941 3.17057 53.4796L2.55771 53.6257C0.479136 54.1255 0.479136 56.9582 2.55771 57.4602L3.17057 57.6062C3.52672 57.6917 3.85257 57.8671 4.1143 58.1142C4.37602 58.3614 4.56409 58.6712 4.65898 59.0117C4.75387 59.3521 4.75213 59.7108 4.65394 60.0504C4.55574 60.39 4.36468 60.6981 4.10057 60.9429L3.64842 61.3646C2.10771 62.7943 3.58414 65.2485 5.64342 64.6828L6.252 64.5182C6.60481 64.4213 6.97821 64.4168 7.33346 64.5051C7.68871 64.5935 8.01288 64.7714 8.27237 65.0205C8.53186 65.2696 8.71721 65.5808 8.8092 65.9219C8.9012 66.2629 8.89649 66.6214 8.79557 66.9601L8.622 67.5422C8.03271 69.5171 10.5891 70.9365 12.0784 69.4574L12.5177 69.0234C12.7727 68.7698 13.0937 68.5864 13.4475 68.4921C13.8012 68.3979 14.1748 68.3962 14.5294 68.4873C14.884 68.5784 15.2068 68.7589 15.4643 69.0102C15.7217 69.2614 15.9044 69.5743 15.9934 69.9162L16.1456 70.5045C16.6663 72.4999 19.617 72.4999 20.1399 70.5045L20.292 69.9162C20.381 69.5743 20.5637 69.2614 20.8212 69.0102C21.0786 68.7589 21.4014 68.5784 21.756 68.4873C22.1107 68.3962 22.4842 68.3979 22.838 68.4921C23.1917 68.5864 23.5127 68.7698 23.7677 69.0234L24.207 69.4574C25.6963 70.9365 28.2527 69.5192 27.6634 67.5422L27.492 66.958C27.3911 66.6193 27.3864 66.2608 27.4784 65.9198C27.5704 65.5788 27.7557 65.2675 28.0152 65.0184C28.2747 64.7693 28.5989 64.5914 28.9541 64.5031C29.3094 64.4148 29.6828 64.4193 30.0356 64.5162L30.642 64.6828C32.6991 65.2485 34.1777 62.7943 32.637 61.3646L32.1849 60.9429C31.9208 60.6981 31.7297 60.39 31.6315 60.0504C31.5333 59.7108 31.5316 59.3521 31.6265 59.0117C31.7213 58.6712 31.9094 58.3614 32.1711 58.1142C32.4329 57.8671 32.7587 57.6917 33.1149 57.6062L33.7277 57.4602C35.8063 56.9603 35.8063 54.1276 33.7277 53.6257L33.1149 53.4796C32.7587 53.3941 32.4329 53.2187 32.1711 52.9716C31.9094 52.7245 31.7213 52.4146 31.6265 52.0741C31.5316 51.7337 31.5333 51.3751 31.6315 51.0355C31.7297 50.6959 31.9208 50.3877 32.1849 50.1429L32.637 49.7212C34.1777 48.2915 32.7013 45.8373 30.642 46.403L30.0334 46.5676C29.6808 46.6643 29.3077 46.6688 28.9527 46.5805C28.5977 46.4923 28.2737 46.3146 28.0143 46.0657C27.7549 45.8169 27.5695 45.506 27.4773 45.1653C27.3851 44.8246 27.3894 44.4664 27.4899 44.1278L27.6634 43.5436C28.2527 41.5687 25.6963 40.1493 24.207 41.6284L23.7677 42.0625C23.5127 42.316 23.1917 42.4994 22.838 42.5937C22.4842 42.688 22.1107 42.6896 21.756 42.5985C21.4014 42.5074 21.0786 42.3269 20.8212 42.0756C20.5637 41.8244 20.381 41.5116 20.292 41.1697L20.1399 40.5813ZM18.1427 65.8225C16.7236 65.8417 15.3147 65.5901 13.9979 65.0821C12.681 64.5741 11.4825 63.8199 10.4719 62.8633C9.46126 61.9068 8.65877 60.7669 8.11103 59.5101C7.56329 58.2532 7.28122 56.9043 7.28122 55.5419C7.28122 54.1795 7.56329 52.8306 8.11103 51.5737C8.65877 50.3168 9.46126 49.177 10.4719 48.2205C11.4825 47.2639 12.681 46.5097 13.9979 46.0017C15.3147 45.4937 16.7236 45.242 18.1427 45.2613C20.9832 45.2613 23.7073 46.3445 25.7158 48.2727C27.7243 50.2009 28.8527 52.8161 28.8527 55.5429C28.8527 58.2698 27.7243 60.8849 25.7158 62.8131C23.7073 64.7413 20.9832 65.8245 18.1427 65.8245V65.8225Z" fill="#F8FAFC"/>
</svg>
