<svg width="250" height="250" viewBox="0 0 250 250" fill="none" xmlns="http://www.w3.org/2000/svg">
<path d="M235.652 118.651C243.463 118.203 250.242 124.187 249.804 131.999C248.785 150.171 243.805 167.962 235.146 184.1C224.247 204.413 207.943 221.317 188.036 232.942C168.129 244.567 145.395 250.461 122.347 249.972C104.037 249.583 86.0955 245.178 69.768 237.136C62.7492 233.679 60.8686 224.833 65.0973 218.251C69.326 211.668 78.0611 209.867 85.1909 213.089C97.027 218.438 109.866 221.367 122.949 221.645C140.772 222.023 158.353 217.465 173.748 208.475C189.142 199.485 201.751 186.413 210.18 170.704C216.367 159.173 220.125 146.552 221.282 133.615C221.98 125.822 227.84 119.099 235.652 118.651Z" fill="#555FDA"/>
<path d="M14.3191 130.801C6.50578 131.21 -0.243977 125.192 0.232803 117.383C1.34191 99.216 6.40957 81.4502 15.1484 65.3553C26.1483 45.0961 42.5363 28.2733 62.5006 16.747C82.4649 5.22056 105.228 -0.560483 128.273 0.0429676C146.581 0.522381 164.5 5.01657 180.788 13.1394C187.789 16.6313 189.626 25.4857 185.365 32.0474C181.103 38.6092 172.36 40.3667 165.246 37.1093C153.436 31.7018 140.612 28.709 127.531 28.3665C109.71 27.8998 92.1063 32.3705 76.6672 41.2842C61.2281 50.198 48.5547 63.2076 40.0481 78.8747C33.8043 90.3744 29.984 102.977 28.7623 115.908C28.0263 123.697 22.1323 130.391 14.3191 130.801Z" fill="#555FDA"/>
</svg>
